<svg width="186" height="150" viewBox="0 0 186 150" fill="none" xmlns="http://www.w3.org/2000/svg">
<path fill-rule="evenodd" clip-rule="evenodd" d="M32.2597 56.4546C32.2597 29.7297 53.9245 8.06494 80.6494 8.06494C101.037 8.06494 118.468 20.669 125.598 38.5026C126.728 38.3743 127.877 38.3084 129.039 38.3084C145.742 38.3084 159.282 51.8489 159.282 68.552C159.282 70.1321 159.161 71.6864 158.926 73.2053C169.964 79.4246 177.429 91.2568 177.429 104.844C177.429 124.888 161.18 141.136 141.136 141.136H50.4058C27.0216 141.136 8.06494 122.18 8.06494 98.7955C8.06494 81.8337 18.0354 67.2136 32.423 60.4539C32.3148 59.1341 32.2597 57.8002 32.2597 56.4546Z" fill="#CAE6F4" stroke="#CAE6F4" stroke-width="16.1299" stroke-linejoin="round"/>
</svg>
